<?xml version="1.0" encoding="UTF-8" ?>
<!DOCTYPE svg PUBLIC "-//W3C//DTD SVG 1.1//EN" "http://www.w3.org/Graphics/SVG/1.1/DTD/svg11.dtd">
<svg width="128pt" height="128pt" viewBox="0 0 128 128" version="1.1" xmlns="http://www.w3.org/2000/svg">
<g id="#ffffffff">
</g>
<g id="#52a2cdff">
<path fill="#52a2cd" opacity="1.00" d=" M 19.24 12.29 C 22.81 8.38 26.93 4.94 30.95 1.47 C 53.28 1.54 75.62 1.36 97.95 1.56 C 97.21 2.37 96.49 3.20 95.79 4.05 C 99.00 8.85 105.69 11.10 106.42 17.42 C 106.98 17.66 107.54 17.87 108.11 18.07 C 104.83 23.95 99.74 28.65 95.62 33.95 L 95.57 33.92 C 90.38 29.99 84.96 26.22 79.08 23.41 C 79.99 22.22 80.97 21.08 81.85 19.86 C 70.36 19.51 58.83 19.72 47.33 19.76 L 47.00 19.01 C 58.95 18.90 70.92 19.18 82.86 18.87 C 85.27 16.36 87.37 13.50 88.93 10.37 C 84.26 10.33 79.60 9.43 74.94 10.07 C 70.26 10.67 65.61 9.38 60.93 9.80 C 53.98 10.83 46.97 8.89 40.05 10.45 C 41.22 13.23 43.19 15.55 44.91 17.99 C 44.69 27.37 44.63 36.76 44.88 46.14 C 36.88 37.44 29.08 28.55 21.23 19.72 C 19.61 17.75 16.70 14.68 19.24 12.29 Z" />
</g>
<g id="#7cc1e4ff">
<path fill="#7cc1e4" opacity="1.00" d=" M 97.95 1.56 C 101.01 4.38 103.93 7.35 106.85 10.30 C 108.46 12.42 110.30 15.75 108.11 18.07 C 107.54 17.87 106.98 17.66 106.42 17.42 C 105.69 11.10 99.00 8.85 95.79 4.05 C 96.49 3.20 97.21 2.37 97.95 1.56 Z" />
</g>
<g id="#3a8bb1ff">
<path fill="#3a8bb1" opacity="1.00" d=" M 40.05 10.45 C 46.97 8.89 53.98 10.83 60.93 9.80 C 65.61 9.38 70.26 10.67 74.94 10.07 C 79.60 9.43 84.26 10.33 88.93 10.37 C 87.37 13.50 85.27 16.36 82.86 18.87 C 70.92 19.18 58.95 18.90 47.00 19.01 C 46.30 18.67 45.61 18.33 44.91 17.99 C 43.19 15.55 41.22 13.23 40.05 10.45 Z" />
</g>
<g id="#4393bbff">
<path fill="#4393bb" opacity="1.00" d=" M 44.91 17.99 C 45.61 18.33 46.30 18.67 47.00 19.01 L 47.33 19.76 C 50.86 25.08 55.77 29.48 59.76 34.52 C 59.45 40.30 60.65 46.14 59.17 51.86 C 56.71 52.43 54.19 52.86 51.89 53.97 C 49.45 51.45 47.28 48.69 44.88 46.14 C 44.63 36.76 44.69 27.37 44.91 17.99 Z" />
</g>
<g id="#4192baff">
<path fill="#4192ba" opacity="1.00" d=" M 71.89 31.81 C 74.21 28.95 76.65 26.19 79.08 23.41 C 84.96 26.22 90.38 29.99 95.57 33.92 C 93.20 36.83 90.80 39.72 88.35 42.57 C 83.24 38.43 77.47 35.25 71.89 31.81 Z" />
</g>
<g id="#3586acff">
<path fill="#3586ac" opacity="1.00" d=" M 64.88 39.88 C 67.32 37.28 69.47 34.43 71.89 31.81 C 77.47 35.25 83.24 38.43 88.35 42.57 C 84.74 46.53 81.68 51.09 77.83 54.76 C 72.11 51.87 65.49 51.03 59.17 51.86 C 60.65 46.14 59.45 40.30 59.76 34.52 C 61.51 36.26 62.81 38.52 64.88 39.88 Z" />
</g>
<g id="#fad173ff">
<path fill="#fad173" opacity="1.00" d=" M 51.89 53.97 C 54.19 52.86 56.71 52.43 59.17 51.86 C 65.49 51.03 72.11 51.87 77.83 54.76 C 86.86 59.65 94.41 68.23 95.89 78.56 C 95.40 80.32 94.92 82.09 94.42 83.85 C 93.20 80.72 93.60 74.80 89.07 74.76 C 86.60 74.46 84.19 75.19 81.85 75.88 C 81.42 75.30 80.98 74.73 80.54 74.17 C 76.54 68.13 69.29 64.13 61.97 65.03 C 56.03 65.61 50.75 69.29 47.44 74.15 C 47.00 74.72 46.56 75.30 46.12 75.88 C 43.01 74.91 39.52 74.02 36.38 75.35 C 34.61 78.22 34.13 81.63 33.55 84.89 C 33.18 82.76 32.71 80.65 32.10 78.57 C 33.16 70.40 38.38 62.96 44.97 58.04 C 47.11 56.41 49.71 55.54 51.89 53.97 M 44.52 60.30 C 43.08 61.78 40.50 63.01 40.65 65.35 C 43.20 63.69 45.40 61.53 48.03 59.99 C 57.40 54.24 69.90 54.15 79.37 59.70 C 80.78 60.41 82.06 61.49 83.71 61.61 C 82.95 59.05 80.29 57.95 78.17 56.75 C 67.57 51.13 53.65 52.43 44.52 60.30 Z" />
</g>
<g id="#fee3a1ff">
<path fill="#fee3a1" opacity="1.00" d=" M 44.52 60.30 C 53.65 52.43 67.57 51.13 78.17 56.75 C 80.29 57.95 82.95 59.05 83.71 61.61 C 82.06 61.49 80.78 60.41 79.37 59.70 C 69.90 54.15 57.40 54.24 48.03 59.99 C 45.40 61.53 43.20 63.69 40.65 65.35 C 40.50 63.01 43.08 61.78 44.52 60.30 Z" />
</g>
<g id="#e9bf44ff">
<path fill="#e9bf44" opacity="1.00" d=" M 47.44 74.15 C 50.75 69.29 56.03 65.61 61.97 65.03 C 69.29 64.13 76.54 68.13 80.54 74.17 C 79.95 75.11 79.00 75.53 77.90 75.32 C 68.40 74.88 58.88 75.02 49.37 75.30 C 48.54 75.31 47.89 74.92 47.44 74.15 Z" />
<path fill="#e9bf44" opacity="1.00" d=" M 34.59 98.46 C 39.43 97.99 44.29 98.09 49.13 97.81 C 49.46 98.01 50.10 98.42 50.43 98.62 C 57.98 105.75 70.86 105.58 78.05 98.02 C 83.17 98.12 88.28 98.07 93.39 98.34 C 90.19 105.04 84.69 110.67 77.96 113.86 C 72.17 117.05 65.35 117.31 58.89 116.88 C 48.51 114.99 39.14 108.02 34.59 98.46 Z" />
</g>
<g id="#eec452ff">
<path fill="#eec452" opacity="1.00" d=" M 46.12 75.88 C 46.56 75.30 47.00 74.72 47.44 74.15 C 47.89 74.92 48.54 75.31 49.37 75.30 C 58.88 75.02 68.40 74.88 77.90 75.32 C 79.00 75.53 79.95 75.11 80.54 74.17 C 80.98 74.73 81.42 75.30 81.85 75.88 C 82.26 78.16 82.70 80.45 82.78 82.77 C 76.55 83.28 70.29 82.91 64.04 83.03 C 57.77 82.73 51.45 83.51 45.20 82.69 C 45.11 80.38 45.62 78.12 46.12 75.88 Z" />
</g>
<g id="#f3c95eff">
<path fill="#f3c95e" opacity="1.00" d=" M 36.38 75.35 C 39.52 74.02 43.01 74.91 46.12 75.88 C 45.62 78.12 45.11 80.38 45.20 82.69 C 51.45 83.51 57.77 82.73 64.04 83.03 C 70.29 82.91 76.55 83.28 82.78 82.77 C 82.70 80.45 82.26 78.16 81.85 75.88 C 84.19 75.19 86.60 74.46 89.07 74.76 C 93.60 74.80 93.20 80.72 94.42 83.85 C 94.92 82.09 95.40 80.32 95.89 78.56 C 96.20 81.37 96.80 84.20 96.34 87.04 C 92.05 87.69 86.32 85.13 83.18 89.02 C 83.07 88.31 82.87 86.88 82.76 86.17 C 82.06 87.36 81.44 88.60 80.62 89.72 C 69.82 90.68 58.90 89.75 48.05 90.14 C 46.76 90.01 45.94 90.58 45.57 91.85 C 44.87 90.35 44.30 88.79 43.51 87.33 C 39.57 86.60 35.53 87.14 31.55 87.02 C 31.23 84.20 31.50 81.34 32.10 78.57 C 32.71 80.65 33.18 82.76 33.55 84.89 C 34.13 81.63 34.61 78.22 36.38 75.35 Z" />
</g>
<g id="#f8ce6cff">
<path fill="#f8ce6c" opacity="1.00" d=" M 80.62 89.72 C 81.44 88.60 82.06 87.36 82.76 86.17 C 82.87 86.88 83.07 88.31 83.18 89.02 C 82.20 91.96 81.21 95.19 78.47 96.98 C 74.67 97.90 71.81 101.11 67.85 101.51 C 63.83 101.87 59.47 102.11 55.84 100.04 C 54.10 99.34 52.39 97.56 50.43 98.62 C 50.10 98.42 49.46 98.01 49.13 97.81 C 47.86 95.87 46.57 93.95 45.57 91.85 C 45.94 90.58 46.76 90.01 48.05 90.14 C 58.90 89.75 69.82 90.68 80.62 89.72 Z" />
</g>
<g id="#efc553ff">
<path fill="#efc553" opacity="1.00" d=" M 31.55 87.02 C 35.53 87.14 39.57 86.60 43.51 87.33 C 44.30 88.79 44.87 90.35 45.57 91.85 C 46.57 93.95 47.86 95.87 49.13 97.81 C 44.29 98.09 39.43 97.99 34.59 98.46 C 32.75 94.92 32.01 90.95 31.55 87.02 Z" />
<path fill="#efc553" opacity="1.00" d=" M 83.18 89.02 C 86.32 85.13 92.05 87.69 96.34 87.04 C 95.95 90.94 95.03 94.76 93.39 98.34 C 88.28 98.07 83.17 98.12 78.05 98.02 L 78.47 96.98 C 81.21 95.19 82.20 91.96 83.18 89.02 Z" />
</g>
<g id="#fad889ff">
<path fill="#fad889" opacity="1.00" d=" M 67.85 101.51 C 71.81 101.11 74.67 97.90 78.47 96.98 L 78.05 98.02 C 70.86 105.58 57.98 105.75 50.43 98.62 C 52.39 97.56 54.10 99.34 55.84 100.04 C 59.47 102.11 63.83 101.87 67.85 101.51 Z" />
</g>
</svg>
