<?xml version="1.0" encoding="UTF-8" ?>
<!DOCTYPE svg PUBLIC "-//W3C//DTD SVG 1.1//EN" "http://www.w3.org/Graphics/SVG/1.1/DTD/svg11.dtd">
<svg width="128pt" height="128pt" viewBox="0 0 128 128" version="1.1" xmlns="http://www.w3.org/2000/svg">
<g id="#e59345ff">
<path fill="#e59345" opacity="1.00" d=" M 80.36 0.00 L 82.12 0.00 C 82.94 1.09 83.60 2.30 83.92 3.63 C 82.73 4.79 81.26 6.19 81.82 8.06 C 81.87 10.10 84.14 10.40 85.58 11.09 C 86.75 16.86 87.44 22.75 89.00 28.43 C 88.83 28.74 88.50 29.36 88.33 29.68 C 86.85 35.88 84.89 41.97 83.33 48.15 C 82.74 49.94 84.24 51.77 86.01 52.02 C 88.55 52.70 91.06 53.70 93.71 53.88 C 93.90 51.23 93.62 48.54 92.57 46.09 C 92.19 44.51 90.73 42.62 92.12 41.11 C 94.46 39.78 97.23 40.69 99.45 41.81 C 100.30 42.78 101.11 43.77 101.91 44.78 C 104.89 51.71 104.99 60.10 101.49 66.86 C 105.80 81.64 109.28 98.83 101.18 112.96 C 105.20 118.02 114.35 116.24 115.98 109.95 C 116.94 106.89 114.33 104.61 113.48 101.98 C 112.50 97.85 117.75 94.37 121.16 96.90 C 125.93 101.28 127.46 108.88 124.83 114.82 C 121.66 122.40 112.98 127.07 104.91 125.74 C 100.88 125.15 97.21 123.08 94.30 120.29 C 85.35 126.78 73.89 127.37 63.26 127.58 C 62.87 125.25 61.65 122.52 63.35 120.40 C 65.59 117.51 69.12 116.10 72.03 114.01 C 75.97 111.53 78.57 107.41 80.10 103.09 C 83.79 92.87 83.91 81.77 83.12 71.05 C 81.82 59.33 78.94 47.05 70.94 37.98 C 69.26 36.34 67.56 34.12 65.00 34.08 C 64.68 34.03 64.04 33.93 63.72 33.88 C 62.83 32.04 60.79 31.46 59.13 30.54 C 59.50 30.10 60.26 29.20 60.63 28.75 C 59.65 27.62 58.44 29.19 57.36 29.33 C 54.83 30.63 52.24 29.04 49.84 28.25 C 50.14 29.07 50.48 29.87 50.87 30.64 C 49.49 31.68 48.06 32.64 46.61 33.58 L 45.78 33.91 C 41.88 35.29 39.43 39.02 37.32 42.38 C 34.55 47.71 31.98 53.54 32.09 59.67 C 30.75 60.18 29.39 60.63 28.12 61.29 C 26.36 62.98 28.13 65.29 28.58 67.16 C 28.94 69.04 30.79 69.85 32.23 70.79 C 36.63 73.55 42.03 73.40 46.79 75.14 C 48.65 75.72 48.75 78.37 47.49 79.61 C 44.44 83.62 38.90 84.29 34.21 84.08 C 32.84 83.85 31.47 83.58 30.09 83.42 C 29.63 88.60 30.58 93.79 31.38 98.90 C 32.35 103.51 33.32 108.63 37.08 111.86 C 40.32 115.06 44.61 117.02 47.63 120.45 C 49.48 122.50 48.26 125.29 47.82 127.61 C 38.31 127.78 28.21 126.39 20.41 120.52 C 12.94 115.06 8.86 106.09 7.56 97.13 C 5.56 83.18 8.33 69.00 12.80 55.79 C 14.74 49.77 17.81 44.18 19.42 38.06 C 21.82 29.34 23.14 20.38 24.48 11.45 C 26.10 10.98 28.37 10.89 28.69 8.80 C 29.78 6.38 27.49 4.79 25.80 3.58 C 25.94 1.79 26.88 0.01 28.97 0.28 C 36.69 0.92 40.26 9.85 47.90 10.70 C 54.64 11.78 61.90 11.89 68.30 9.23 C 72.62 6.57 75.53 1.93 80.36 0.00 M 37.29 17.84 C 39.97 18.33 38.43 14.72 38.64 13.17 C 36.64 13.77 37.46 16.29 37.29 17.84 M 73.34 13.07 C 73.22 14.62 73.16 16.19 73.31 17.74 C 73.66 17.76 74.35 17.79 74.70 17.80 C 74.75 16.61 74.73 15.41 74.63 14.22 C 74.31 13.93 73.66 13.36 73.34 13.07 M 40.25 14.19 C 40.52 15.42 39.39 17.73 41.01 18.20 C 42.02 17.29 42.58 13.55 40.25 14.19 M 71.73 17.93 C 71.83 16.68 71.82 15.42 71.72 14.17 C 69.47 13.34 69.48 18.95 71.73 17.93 M 32.31 21.39 C 29.43 24.18 30.24 29.48 33.79 31.33 C 37.29 33.51 42.59 31.16 43.08 27.01 C 44.15 25.27 43.73 23.18 41.88 22.20 C 40.33 18.73 34.70 18.57 32.31 21.39 M 71.12 20.13 C 67.06 22.02 66.49 28.27 70.19 30.84 C 73.60 33.79 79.97 31.46 80.15 26.84 C 81.03 25.09 80.52 23.31 78.88 22.25 C 78.09 19.34 73.57 18.74 71.12 20.13 M 28.35 36.51 C 28.32 36.81 28.28 37.42 28.25 37.73 C 31.47 37.54 34.56 36.46 37.62 35.52 C 37.67 35.22 37.76 34.61 37.81 34.31 C 34.55 34.41 31.49 35.76 28.35 36.51 M 72.98 34.03 C 73.07 34.40 73.24 35.14 73.33 35.51 C 76.18 36.20 79.01 36.97 81.87 37.66 C 81.88 37.31 81.90 36.60 81.91 36.25 C 79.01 35.27 76.03 34.43 72.98 34.03 M 28.48 40.44 C 28.42 40.76 28.29 41.40 28.23 41.72 C 31.52 41.28 34.49 39.60 37.56 38.42 C 37.70 38.08 37.99 37.39 38.13 37.04 C 34.75 37.56 31.60 39.10 28.48 40.44 M 72.01 37.24 C 75.00 39.35 78.63 40.26 81.96 41.71 C 81.93 41.32 81.87 40.54 81.84 40.16 C 78.69 38.90 75.53 36.69 72.01 37.24 Z" />
</g>
<g id="#ffbf6bff">
<path fill="#ffbf6b" opacity="1.00" d=" M 24.48 11.45 C 24.83 8.81 25.22 6.18 25.80 3.58 C 27.49 4.79 29.78 6.38 28.69 8.80 C 28.37 10.89 26.10 10.98 24.48 11.45 Z" />
<path fill="#ffbf6b" opacity="1.00" d=" M 81.82 8.06 C 81.26 6.19 82.73 4.79 83.92 3.63 C 84.68 6.07 85.16 8.58 85.58 11.09 C 84.14 10.40 81.87 10.10 81.82 8.06 Z" />
<path fill="#ffbf6b" opacity="1.00" d=" M 37.29 17.84 C 37.46 16.29 36.64 13.77 38.64 13.17 C 38.43 14.72 39.97 18.33 37.29 17.84 Z" />
<path fill="#ffbf6b" opacity="1.00" d=" M 73.34 13.07 C 73.66 13.36 74.31 13.93 74.63 14.22 C 74.73 15.41 74.75 16.61 74.70 17.80 C 74.35 17.79 73.66 17.76 73.31 17.74 C 73.16 16.19 73.22 14.62 73.34 13.07 Z" />
<path fill="#ffbf6b" opacity="1.00" d=" M 40.25 14.19 C 42.58 13.55 42.02 17.29 41.01 18.20 C 39.39 17.73 40.52 15.42 40.25 14.19 Z" />
<path fill="#ffbf6b" opacity="1.00" d=" M 71.73 17.93 C 69.48 18.95 69.47 13.34 71.72 14.17 C 71.82 15.42 71.83 16.68 71.73 17.93 Z" />
<path fill="#ffbf6b" opacity="1.00" d=" M 46.61 33.58 C 48.06 32.64 49.49 31.68 50.87 30.64 C 52.34 30.66 53.60 31.07 54.65 31.89 C 54.76 36.49 48.26 38.02 46.61 33.58 Z" />
<path fill="#ffbf6b" opacity="1.00" d=" M 56.19 31.38 C 56.93 31.17 58.39 30.75 59.13 30.54 C 60.79 31.46 62.83 32.04 63.72 33.88 C 62.20 38.58 55.24 35.74 56.19 31.38 Z" />
<path fill="#ffbf6b" opacity="1.00" d=" M 28.35 36.51 C 31.49 35.76 34.55 34.41 37.81 34.31 C 37.76 34.61 37.67 35.22 37.62 35.52 C 34.56 36.46 31.47 37.54 28.25 37.73 C 28.28 37.42 28.32 36.81 28.35 36.51 Z" />
<path fill="#ffbf6b" opacity="1.00" d=" M 37.32 42.38 C 39.43 39.02 41.88 35.29 45.78 33.91 C 46.06 36.97 48.97 38.05 51.63 38.09 C 51.99 40.30 53.20 43.05 55.97 42.51 C 58.42 42.47 58.68 39.74 59.10 37.94 C 61.81 38.22 64.43 36.89 65.00 34.08 C 67.56 34.12 69.26 36.34 70.94 37.98 C 78.94 47.05 81.82 59.33 83.12 71.05 C 83.91 81.77 83.79 92.87 80.10 103.09 C 78.57 107.41 75.97 111.53 72.03 114.01 C 69.12 116.10 65.59 117.51 63.35 120.40 C 61.65 122.52 62.87 125.25 63.26 127.58 C 61.40 127.74 59.54 127.78 57.69 128.00 L 53.30 128.00 C 51.47 127.82 49.64 127.71 47.82 127.61 C 48.26 125.29 49.48 122.50 47.63 120.45 C 44.61 117.02 40.32 115.06 37.08 111.86 C 33.32 108.63 32.35 103.51 31.38 98.90 C 30.58 93.79 29.63 88.60 30.09 83.42 C 31.47 83.58 32.84 83.85 34.21 84.08 C 36.11 87.34 35.76 92.24 39.02 94.43 C 45.80 92.80 52.30 90.03 58.98 87.96 C 60.53 87.68 62.37 86.43 61.68 84.62 C 58.54 75.07 55.25 65.56 52.02 56.04 C 51.76 54.72 50.38 53.49 49.00 54.10 C 43.31 55.81 37.79 58.01 32.09 59.67 C 31.98 53.54 34.55 47.71 37.32 42.38 Z" />
<path fill="#ffbf6b" opacity="1.00" d=" M 72.98 34.03 C 76.03 34.43 79.01 35.27 81.91 36.25 C 81.90 36.60 81.88 37.31 81.87 37.66 C 79.01 36.97 76.18 36.20 73.33 35.51 C 73.24 35.14 73.07 34.40 72.98 34.03 Z" />
<path fill="#ffbf6b" opacity="1.00" d=" M 28.48 40.44 C 31.60 39.10 34.75 37.56 38.13 37.04 C 37.99 37.39 37.70 38.08 37.56 38.42 C 34.49 39.60 31.52 41.28 28.23 41.72 C 28.29 41.40 28.42 40.76 28.48 40.44 Z" />
<path fill="#ffbf6b" opacity="1.00" d=" M 72.01 37.24 C 75.53 36.69 78.69 38.90 81.84 40.16 C 81.87 40.54 81.93 41.32 81.96 41.71 C 78.63 40.26 75.00 39.35 72.01 37.24 Z" />
</g>
<g id="#607c92ff">
<path fill="#607c92" opacity="1.00" d=" M 91.33 19.36 C 91.81 18.01 93.41 17.04 94.83 17.43 C 98.47 18.36 102.08 19.40 105.70 20.44 C 107.12 20.89 108.15 22.59 107.70 24.06 C 105.82 30.98 103.92 37.90 101.91 44.78 C 101.11 43.77 100.30 42.78 99.45 41.81 C 100.71 36.64 102.16 31.52 103.50 26.37 C 103.76 25.31 104.43 23.48 102.77 23.21 C 99.71 22.57 96.37 20.26 93.36 21.23 C 91.23 28.75 89.09 36.31 87.41 43.94 C 88.54 45.58 90.88 45.40 92.57 46.09 C 93.62 48.54 93.90 51.23 93.71 53.88 C 91.06 53.70 88.55 52.70 86.01 52.02 C 84.24 51.77 82.74 49.94 83.33 48.15 C 84.89 41.97 86.85 35.88 88.33 29.68 C 89.11 29.23 89.36 28.52 89.07 27.53 C 89.76 24.79 90.54 22.07 91.33 19.36 Z" />
</g>
<g id="#ffffffff">
<path fill="#ffffff" opacity="1.00" d=" M 32.31 21.39 C 34.70 18.57 40.33 18.73 41.88 22.20 C 37.65 20.72 36.44 28.02 41.00 27.91 C 41.52 27.68 42.56 27.24 43.08 27.01 C 42.59 31.16 37.29 33.51 33.79 31.33 C 30.24 29.48 29.43 24.18 32.31 21.39 Z" />
<path fill="#ffffff" opacity="1.00" d=" M 71.12 20.13 C 73.57 18.74 78.09 19.34 78.88 22.25 C 76.67 21.34 74.09 23.71 75.08 25.99 C 75.84 28.11 78.66 28.30 80.15 26.84 C 79.97 31.46 73.60 33.79 70.19 30.84 C 66.49 28.27 67.06 22.02 71.12 20.13 Z" />
<path fill="#ffffff" opacity="1.00" d=" M 32.09 59.67 C 37.79 58.01 43.31 55.81 49.00 54.10 C 50.38 53.49 51.76 54.72 52.02 56.04 C 55.25 65.56 58.54 75.07 61.68 84.62 C 62.37 86.43 60.53 87.68 58.98 87.96 C 52.30 90.03 45.80 92.80 39.02 94.43 C 35.76 92.24 36.11 87.34 34.21 84.08 C 38.90 84.29 44.44 83.62 47.49 79.61 C 48.75 78.37 48.65 75.72 46.79 75.14 C 42.03 73.40 36.63 73.55 32.23 70.79 C 30.79 69.85 28.94 69.04 28.58 67.16 C 28.13 65.29 26.36 62.98 28.12 61.29 C 29.39 60.63 30.75 60.18 32.09 59.67 Z" />
</g>
<g id="#bad5ffff">
<path fill="#bad5ff" opacity="1.00" d=" M 93.36 21.23 C 96.37 20.26 99.71 22.57 102.77 23.21 C 104.43 23.48 103.76 25.31 103.50 26.37 C 102.16 31.52 100.71 36.64 99.45 41.81 C 97.23 40.69 94.46 39.78 92.12 41.11 C 90.73 42.62 92.19 44.51 92.57 46.09 C 90.88 45.40 88.54 45.58 87.41 43.94 C 89.09 36.31 91.23 28.75 93.36 21.23 Z" />
</g>
<g id="#9a5310fd">
<path fill="#9a5310" opacity="1.00" d=" M 41.00 27.91 C 36.44 28.02 37.65 20.72 41.88 22.20 C 43.73 23.18 44.15 25.27 43.08 27.01 C 42.56 27.24 41.52 27.68 41.00 27.91 Z" />
<path fill="#9a5310" opacity="1.00" d=" M 75.08 25.99 C 74.09 23.71 76.67 21.34 78.88 22.25 C 80.52 23.31 81.03 25.09 80.15 26.84 C 78.66 28.30 75.84 28.11 75.08 25.99 Z" />
<path fill="#9a5310" opacity="1.00" d=" M 49.84 28.25 C 52.24 29.04 54.83 30.63 57.36 29.33 C 58.44 29.19 59.65 27.62 60.63 28.75 C 60.26 29.20 59.50 30.10 59.13 30.54 C 58.39 30.75 56.93 31.17 56.19 31.38 C 55.24 35.74 62.20 38.58 63.72 33.88 C 64.04 33.93 64.68 34.03 65.00 34.08 C 64.43 36.89 61.81 38.22 59.10 37.94 C 58.68 39.74 58.42 42.47 55.97 42.51 C 53.20 43.05 51.99 40.30 51.63 38.09 C 48.97 38.05 46.06 36.97 45.78 33.91 L 46.61 33.58 C 48.26 38.02 54.76 36.49 54.65 31.89 C 53.60 31.07 52.34 30.66 50.87 30.64 C 50.48 29.87 50.14 29.07 49.84 28.25 Z" />
</g>
</svg>
