<?xml version="1.0" encoding="UTF-8" ?>
<!DOCTYPE svg PUBLIC "-//W3C//DTD SVG 1.1//EN" "http://www.w3.org/Graphics/SVG/1.1/DTD/svg11.dtd">
<svg width="626pt" height="626pt" viewBox="0 0 626 626" version="1.1" xmlns="http://www.w3.org/2000/svg">
<g id="#ffffffff">
</g>
<g id="#000000ff">
<path fill="#000000" opacity="1.00" d=" M 150.77 0.00 L 172.27 0.00 C 184.01 2.73 196.18 3.97 207.44 8.51 C 237.70 18.90 264.16 37.94 287.26 59.74 C 346.73 119.27 406.26 178.73 465.75 238.25 C 468.90 241.46 472.28 244.45 475.13 247.94 C 458.75 248.11 442.37 247.89 425.99 248.06 C 424.09 248.03 422.18 248.09 420.33 247.69 C 418.04 246.38 416.59 244.07 414.70 242.31 C 403.93 232.41 394.33 221.33 383.57 211.43 C 353.77 181.23 323.62 151.37 293.66 121.34 C 286.70 113.96 279.04 107.29 272.23 99.76 C 254.18 81.79 234.60 64.78 211.69 53.29 C 198.26 46.71 183.88 41.83 168.98 40.11 C 160.19 40.03 151.18 39.19 142.59 41.61 C 136.94 43.13 130.98 43.90 125.77 46.75 C 122.64 48.41 119.26 49.54 116.10 51.16 C 94.98 63.84 77.72 82.86 67.19 105.13 C 63.98 114.16 60.59 123.32 60.04 132.98 C 59.89 145.16 59.44 157.53 62.53 169.43 C 65.59 180.37 69.41 191.16 74.78 201.21 C 82.22 214.07 90.11 226.81 100.31 237.70 C 104.98 242.37 109.11 247.55 113.74 252.26 C 148.82 287.18 183.84 322.15 218.75 357.25 C 269.06 407.27 318.98 457.69 369.31 507.69 C 377.09 515.59 384.69 523.70 393.21 530.81 C 411.40 549.03 431.50 565.81 454.65 577.37 C 460.89 580.62 467.67 582.61 474.41 584.51 C 481.46 586.40 488.81 586.07 496.03 586.02 C 501.91 586.03 507.37 583.63 512.89 581.91 C 522.05 579.03 529.59 572.83 537.13 567.12 C 546.65 558.51 555.84 549.11 561.39 537.36 C 567.05 527.27 567.11 515.07 565.08 503.98 C 561.11 489.07 552.49 475.94 543.13 463.87 C 534.88 453.84 526.41 443.97 517.42 434.58 C 510.75 426.62 502.96 419.71 495.75 412.25 C 442.61 359.06 389.37 305.97 336.29 252.71 C 330.35 244.33 321.63 238.73 314.75 231.25 C 295.25 211.75 275.75 192.24 256.25 172.75 C 249.33 165.99 242.94 158.54 234.72 153.27 C 224.93 146.24 213.14 141.75 200.98 141.96 C 190.93 142.50 181.22 147.00 174.20 154.20 C 164.92 162.68 158.70 175.27 159.95 188.04 C 160.80 201.20 167.79 213.05 175.88 223.11 C 183.32 231.99 191.81 239.85 199.98 248.03 C 185.32 247.99 170.66 247.99 156.00 248.01 C 152.46 247.97 148.88 248.29 145.36 247.72 C 139.07 240.69 134.06 232.50 129.97 224.01 C 125.68 216.12 123.52 207.28 121.44 198.61 C 120.68 190.79 120.67 182.86 121.10 175.01 C 123.89 155.65 133.75 137.36 148.67 124.66 C 161.45 112.47 178.29 104.40 195.98 103.04 C 203.91 102.96 211.95 102.47 219.75 104.26 C 237.36 108.12 253.70 116.93 267.17 128.83 C 271.66 133.02 276.62 136.68 280.67 141.33 C 311.94 172.39 342.99 203.67 374.15 234.84 C 378.65 240.02 384.07 244.24 388.74 249.26 C 391.03 251.64 393.41 253.94 396.00 256.00 C 401.42 260.21 405.58 265.79 411.01 269.99 C 415.31 273.68 419.86 277.39 422.56 282.49 C 424.01 285.25 426.51 287.18 428.74 289.28 C 462.68 323.66 497.22 357.45 531.12 391.87 C 536.51 397.16 541.23 403.09 546.77 408.22 C 550.41 411.61 553.14 415.83 556.75 419.25 C 561.91 424.13 566.15 429.86 570.68 435.32 C 581.55 448.68 591.02 463.28 597.83 479.13 C 600.62 487.30 603.83 495.46 604.77 504.10 C 605.08 510.42 606.49 516.73 605.20 523.03 C 604.84 541.49 595.95 558.58 585.03 573.02 C 579.96 580.50 572.93 586.25 566.77 592.77 C 561.59 598.37 555.20 602.59 549.12 607.10 C 539.26 613.10 529.11 619.08 517.80 621.81 C 512.09 623.72 506.05 624.24 500.30 626.00 L 480.71 626.00 C 470.92 623.59 460.80 622.36 451.36 618.68 C 443.38 615.59 435.54 612.08 428.06 607.92 C 423.94 605.37 419.87 602.75 415.68 600.33 C 403.65 592.61 392.55 583.58 381.76 574.23 C 376.45 569.22 371.65 563.64 366.00 558.99 C 361.25 555.10 357.12 550.55 352.75 546.25 C 261.91 455.42 171.09 364.58 80.25 273.75 C 77.12 270.53 74.44 266.91 71.24 263.76 C 65.62 258.30 61.22 251.77 56.35 245.65 C 49.00 234.75 41.24 223.97 36.21 211.73 C 30.73 200.38 26.43 188.43 23.85 176.07 C 21.00 166.63 21.47 156.67 20.12 146.99 C 19.43 141.97 20.72 137.02 20.94 132.02 C 21.22 122.03 23.71 112.26 26.76 102.79 C 28.44 95.73 31.80 89.27 34.70 82.67 C 41.26 70.15 49.23 58.27 59.08 48.10 C 62.62 43.31 67.13 39.44 71.69 35.68 C 77.72 29.53 84.99 24.82 92.16 20.13 C 101.38 13.99 111.73 9.83 122.11 6.12 C 131.38 2.86 141.21 1.96 150.77 0.00 Z" />
</g>
</svg>
