<?xml version="1.0" encoding="UTF-8" ?>
<!DOCTYPE svg PUBLIC "-//W3C//DTD SVG 1.1//EN" "http://www.w3.org/Graphics/SVG/1.1/DTD/svg11.dtd">
<svg width="128pt" height="128pt" viewBox="0 0 128 128" version="1.1" xmlns="http://www.w3.org/2000/svg">
<g id="#ffffffff">
</g>
<g id="#60cd52ff">
<path fill="#60cd52" opacity="1.00" d=" M 20.61 10.61 C 24.11 7.62 27.35 4.34 30.89 1.39 C 53.25 1.48 75.60 1.32 97.96 1.47 C 97.20 2.37 96.45 3.26 95.70 4.16 C 98.37 7.20 101.70 9.56 104.48 12.49 C 106.54 14.21 105.46 17.01 105.41 19.28 C 106.07 19.48 106.73 19.67 107.39 19.87 C 103.49 24.65 99.55 29.40 95.54 34.08 C 90.28 30.16 84.85 26.41 78.97 23.47 C 79.94 22.28 80.87 21.05 81.82 19.83 C 70.26 19.64 58.70 19.74 47.14 19.78 L 46.62 19.18 C 58.70 18.76 70.79 19.17 82.88 18.95 C 85.01 16.53 87.00 13.94 88.04 10.85 C 77.71 10.03 67.31 10.73 56.95 10.51 C 51.71 10.63 46.42 10.07 41.21 10.90 C 41.24 11.34 41.30 12.23 41.33 12.68 C 41.85 22.48 42.31 32.36 41.15 42.13 C 37.88 38.36 34.45 34.73 31.17 30.98 C 27.16 25.98 22.12 21.80 18.75 16.31 C 17.12 14.25 19.20 12.06 20.61 10.61 Z" />
</g>
<g id="#87e37cff">
<path fill="#87e37c" opacity="1.00" d=" M 97.96 1.47 C 101.26 5.00 105.22 7.97 107.98 11.96 C 109.84 14.38 109.02 17.58 107.39 19.87 C 106.73 19.67 106.07 19.48 105.41 19.28 C 105.46 17.01 106.54 14.21 104.48 12.49 C 101.70 9.56 98.37 7.20 95.70 4.16 C 96.45 3.26 97.20 2.37 97.96 1.47 Z" />
</g>
<g id="#48b13aff">
<path fill="#48b13a" opacity="1.00" d=" M 41.21 10.90 C 46.42 10.07 51.71 10.63 56.95 10.51 C 67.31 10.73 77.71 10.03 88.04 10.85 C 87.00 13.94 85.01 16.53 82.88 18.95 C 70.79 19.17 58.70 18.76 46.62 19.18 C 44.78 17.08 42.93 14.97 41.33 12.68 C 41.30 12.23 41.24 11.34 41.21 10.90 Z" />
</g>
<g id="#56c148ff">
<path fill="#56c148" opacity="1.00" d=" M 41.33 12.68 C 42.93 14.97 44.78 17.08 46.62 19.18 L 47.14 19.78 C 48.07 20.91 48.98 22.05 49.91 23.18 C 47.81 32.17 49.91 41.42 48.64 50.51 C 46.29 47.58 43.63 44.93 41.15 42.13 C 42.31 32.36 41.85 22.48 41.33 12.68 Z" />
</g>
<g id="#4fb941ff">
<path fill="#4fb941" opacity="1.00" d=" M 48.64 50.51 C 49.91 41.42 47.81 32.17 49.91 23.18 C 53.14 27.00 56.59 30.62 59.76 34.49 C 58.88 40.23 59.24 46.05 59.16 51.84 C 56.67 52.34 54.16 52.88 51.87 54.01 C 50.79 52.85 49.71 51.68 48.64 50.51 Z" />
</g>
<g id="#50ba41ff">
<path fill="#50ba41" opacity="1.00" d=" M 71.97 31.65 C 74.23 28.86 76.62 26.18 78.97 23.47 C 84.85 26.41 90.28 30.16 95.54 34.08 C 93.18 36.94 90.75 39.73 88.43 42.62 C 83.25 38.52 77.54 35.18 71.97 31.65 Z" />
</g>
<g id="#44ac35ff">
<path fill="#44ac35" opacity="1.00" d=" M 64.81 39.97 C 67.21 37.20 69.54 34.38 71.97 31.65 C 77.54 35.18 83.25 38.52 88.43 42.62 C 84.85 46.61 81.55 50.84 78.07 54.92 C 72.33 51.84 65.56 51.04 59.16 51.84 C 59.24 46.05 58.88 40.23 59.76 34.49 C 61.39 36.36 63.08 38.18 64.81 39.97 Z" />
</g>
<g id="#fbd174ff">
<path fill="#fbd174" opacity="1.00" d=" M 51.87 54.01 C 54.16 52.88 56.67 52.34 59.16 51.84 C 65.56 51.04 72.33 51.84 78.07 54.92 C 87.09 59.81 94.58 68.48 95.90 78.85 C 95.63 79.28 95.09 80.15 94.82 80.58 C 93.78 79.63 92.81 78.59 91.65 77.79 C 88.59 77.21 85.43 77.49 82.33 77.26 C 81.83 76.32 81.32 75.39 80.75 74.50 C 76.71 67.91 68.69 63.82 60.98 65.20 C 55.25 66.00 50.24 69.69 47.20 74.53 C 46.63 75.42 46.10 76.34 45.58 77.27 C 42.40 77.44 39.22 77.48 36.03 77.49 C 35.04 78.59 34.05 79.70 33.06 80.80 C 32.73 79.75 32.42 78.70 32.13 77.64 C 34.22 67.03 42.19 58.42 51.87 54.01 Z" />
</g>
<g id="#e9bf41ff">
<path fill="#e9bf41" opacity="1.00" d=" M 47.20 74.53 C 50.24 69.69 55.25 66.00 60.98 65.20 C 68.69 63.82 76.71 67.91 80.75 74.50 C 75.62 76.13 70.19 74.35 64.93 74.95 C 59.04 74.75 52.97 76.13 47.20 74.53 Z" />
</g>
<g id="#eec452ff">
<path fill="#eec452" opacity="1.00" d=" M 45.58 77.27 C 46.10 76.34 46.63 75.42 47.20 74.53 C 52.97 76.13 59.04 74.75 64.93 74.95 C 70.19 74.35 75.62 76.13 80.75 74.50 C 81.32 75.39 81.83 76.32 82.33 77.26 C 82.52 79.08 82.57 80.91 82.64 82.74 C 76.46 83.33 70.25 82.82 64.05 82.91 C 57.76 82.81 51.47 83.37 45.20 82.73 C 45.29 80.91 45.37 79.08 45.58 77.27 Z" />
</g>
<g id="#f2c95cff">
<path fill="#f2c95c" opacity="1.00" d=" M 33.06 80.80 C 34.05 79.70 35.04 78.59 36.03 77.49 C 39.22 77.48 42.40 77.44 45.58 77.27 C 45.37 79.08 45.29 80.91 45.20 82.73 C 51.47 83.37 57.76 82.81 64.05 82.91 C 70.25 82.82 76.46 83.33 82.64 82.74 C 82.57 80.91 82.52 79.08 82.33 77.26 C 85.43 77.49 88.59 77.21 91.65 77.79 C 92.81 78.59 93.78 79.63 94.82 80.58 C 95.09 80.15 95.63 79.28 95.90 78.85 C 96.34 81.53 96.62 84.24 96.38 86.95 C 91.99 87.28 86.92 85.91 83.13 88.79 C 83.09 88.14 83.01 86.84 82.97 86.20 C 82.15 87.34 81.34 88.50 80.54 89.66 C 74.07 90.70 67.49 89.90 60.97 90.12 C 55.78 90.23 50.48 89.21 45.39 90.62 C 46.48 93.05 47.64 95.48 49.13 97.70 C 44.30 97.34 39.44 97.62 34.68 98.45 L 34.36 98.49 C 31.67 91.92 30.69 84.64 32.13 77.64 C 32.42 78.70 32.73 79.75 33.06 80.80 Z" />
</g>
<g id="#f8ce6cff">
<path fill="#f8ce6c" opacity="1.00" d=" M 80.54 89.66 C 81.34 88.50 82.15 87.34 82.97 86.20 C 83.01 86.84 83.09 88.14 83.13 88.79 C 82.47 91.91 80.89 94.78 78.72 97.10 C 76.24 98.01 73.84 99.10 71.47 100.25 C 67.99 101.99 63.93 101.97 60.17 101.46 C 56.81 100.67 53.79 98.73 50.31 98.37 C 50.01 98.20 49.42 97.87 49.13 97.70 C 47.64 95.48 46.48 93.05 45.39 90.62 C 50.48 89.21 55.78 90.23 60.97 90.12 C 67.49 89.90 74.07 90.70 80.54 89.66 Z" />
</g>
<g id="#efc553ff">
<path fill="#efc553" opacity="1.00" d=" M 83.13 88.79 C 86.92 85.91 91.99 87.28 96.38 86.95 C 95.98 90.89 94.98 94.72 93.43 98.37 C 88.25 98.18 83.07 98.16 77.89 98.02 L 78.72 97.10 C 80.89 94.78 82.47 91.91 83.13 88.79 Z" />
</g>
<g id="#fad889ff">
<path fill="#fad889" opacity="1.00" d=" M 71.47 100.25 C 73.84 99.10 76.24 98.01 78.72 97.10 L 77.89 98.02 C 70.80 105.70 57.63 105.76 50.31 98.37 C 53.79 98.73 56.81 100.67 60.17 101.46 C 63.93 101.97 67.99 101.99 71.47 100.25 Z" />
</g>
<g id="#e9bf44ff">
<path fill="#e9bf44" opacity="1.00" d=" M 34.68 98.45 C 39.44 97.62 44.30 97.34 49.13 97.70 C 49.42 97.87 50.01 98.20 50.31 98.37 C 57.63 105.76 70.80 105.70 77.89 98.02 C 83.07 98.16 88.25 98.18 93.43 98.37 C 89.13 107.39 80.62 113.95 71.09 116.62 C 66.39 117.18 61.58 117.22 56.88 116.61 C 47.44 113.95 38.77 107.53 34.68 98.45 Z" />
</g>
</svg>
