<?xml version="1.0" encoding="UTF-8" ?>
<!DOCTYPE svg PUBLIC "-//W3C//DTD SVG 1.1//EN" "http://www.w3.org/Graphics/SVG/1.1/DTD/svg11.dtd">
<svg width="128pt" height="128pt" viewBox="0 0 128 128" version="1.1" xmlns="http://www.w3.org/2000/svg">
<g id="#ffffffff">
</g>
<g id="#cd5353ff">
<path fill="#cd5353" opacity="1.00" d=" M 30.02 1.98 C 30.27 1.84 30.79 1.55 31.04 1.41 C 53.28 1.47 75.54 1.25 97.77 1.51 C 100.90 4.64 104.18 7.63 107.16 10.90 C 109.25 13.32 109.38 16.81 107.55 19.42 C 103.70 24.84 99.06 29.65 94.98 34.90 L 94.91 34.84 C 90.17 30.28 83.96 27.76 78.78 23.76 C 79.68 22.39 80.81 21.19 81.79 19.88 C 70.33 19.59 58.79 19.66 47.32 19.86 C 47.83 20.64 48.40 21.37 49.01 22.07 C 46.94 25.72 47.55 29.96 47.55 33.96 C 47.64 39.11 47.38 44.27 47.67 49.43 C 39.19 40.01 30.81 30.51 22.32 21.12 L 22.32 20.94 C 23.05 18.41 20.68 16.08 21.63 13.67 C 24.14 9.88 28.49 7.80 31.10 4.11 C 30.83 3.58 30.29 2.51 30.02 1.98 M 40.09 10.30 C 41.16 13.72 43.65 16.49 46.05 19.05 C 58.31 18.88 70.65 19.17 82.88 18.91 C 85.04 16.18 87.33 13.47 88.86 10.33 C 83.99 8.56 78.94 11.01 74.01 9.94 C 70.67 9.38 67.31 9.79 63.99 10.23 C 59.29 10.82 54.65 9.05 49.96 9.93 C 46.70 10.47 43.38 10.23 40.09 10.30 Z" />
</g>
<g id="#e47a79ff">
<path fill="#e47a79" opacity="1.00" d=" M 20.98 10.02 C 24.20 7.59 26.81 4.44 30.02 1.98 C 30.29 2.51 30.83 3.58 31.10 4.11 C 28.49 7.80 24.14 9.88 21.63 13.67 C 20.68 16.08 23.05 18.41 22.32 20.94 C 20.23 19.51 19.15 17.15 17.91 15.03 C 17.86 12.93 19.73 11.48 20.98 10.02 Z" />
</g>
<g id="#b13a3cff">
<path fill="#b13a3c" opacity="1.00" d=" M 40.09 10.30 C 43.38 10.23 46.70 10.47 49.96 9.93 C 54.65 9.05 59.29 10.82 63.99 10.23 C 67.31 9.79 70.67 9.38 74.01 9.94 C 78.94 11.01 83.99 8.56 88.86 10.33 C 87.33 13.47 85.04 16.18 82.88 18.91 C 70.65 19.17 58.31 18.88 46.05 19.05 C 43.65 16.49 41.16 13.72 40.09 10.30 Z" />
</g>
<g id="#ba4244ff">
<path fill="#ba4244" opacity="1.00" d=" M 47.55 33.96 C 47.55 29.96 46.94 25.72 49.01 22.07 C 52.47 26.33 56.33 30.25 59.80 34.51 C 58.81 39.26 59.18 44.14 58.77 48.94 C 58.51 50.07 59.09 51.00 59.87 51.75 C 57.14 52.31 54.35 52.75 51.83 53.98 C 50.42 52.48 49.03 50.97 47.67 49.43 C 47.38 44.27 47.64 39.11 47.55 33.96 Z" />
</g>
<g id="#b94143ff">
<path fill="#b94143" opacity="1.00" d=" M 71.85 31.83 C 74.03 29.03 76.38 26.37 78.78 23.76 C 83.96 27.76 90.17 30.28 94.91 34.84 C 92.70 37.43 90.57 40.08 88.36 42.66 C 83.32 38.38 77.46 35.26 71.85 31.83 Z" />
</g>
<g id="#ac3538ff">
<path fill="#ac3538" opacity="1.00" d=" M 64.81 39.87 C 67.31 37.33 69.33 34.36 71.85 31.83 C 77.46 35.26 83.32 38.38 88.36 42.66 C 84.84 46.66 81.56 50.87 78.07 54.87 C 72.50 52.01 66.06 51.07 59.87 51.75 C 59.09 51.00 58.51 50.07 58.77 48.94 C 59.18 44.14 58.81 39.26 59.80 34.51 C 61.47 36.29 62.97 38.25 64.81 39.87 Z" />
</g>
<g id="#fbd174ff">
<path fill="#fbd174" opacity="1.00" d=" M 51.83 53.98 C 54.35 52.75 57.14 52.31 59.87 51.75 C 66.06 51.07 72.50 52.01 78.07 54.87 C 87.09 59.86 94.62 68.53 95.94 78.95 C 95.61 79.36 94.96 80.18 94.64 80.59 C 93.61 79.68 92.98 78.20 91.71 77.65 C 88.54 77.38 85.33 77.83 82.18 77.16 C 81.69 76.22 81.22 75.26 80.64 74.37 C 77.45 69.36 72.04 65.68 66.07 65.07 C 58.70 64.11 51.28 68.06 47.36 74.26 C 46.73 75.21 46.20 76.22 45.65 77.21 C 42.32 77.95 38.92 77.36 35.56 77.49 C 34.82 78.60 34.21 79.78 33.52 80.91 C 33.01 79.83 32.55 78.73 32.10 77.62 C 34.17 68.16 40.64 59.69 49.39 55.46 C 50.00 55.09 51.22 54.35 51.83 53.98 Z" />
</g>
<g id="#e9bf41ff">
<path fill="#e9bf41" opacity="1.00" d=" M 47.36 74.26 C 51.28 68.06 58.70 64.11 66.07 65.07 C 72.04 65.68 77.45 69.36 80.64 74.37 C 80.00 74.78 79.30 75.08 78.57 75.26 C 68.85 74.91 59.11 74.82 49.39 75.28 C 48.58 75.27 47.90 74.93 47.36 74.26 Z" />
</g>
<g id="#eec452ff">
<path fill="#eec452" opacity="1.00" d=" M 45.65 77.21 C 46.20 76.22 46.73 75.21 47.36 74.26 C 47.90 74.93 48.58 75.27 49.39 75.28 C 59.11 74.82 68.85 74.91 78.57 75.26 C 79.30 75.08 80.00 74.78 80.64 74.37 C 81.22 75.26 81.69 76.22 82.18 77.16 C 82.44 79.01 82.70 80.85 82.74 82.72 C 76.20 83.35 69.61 82.81 63.04 82.94 C 57.11 82.68 51.15 83.41 45.24 82.71 C 45.22 80.87 45.42 79.03 45.65 77.21 Z" />
</g>
<g id="#f2c95cff">
<path fill="#f2c95c" opacity="1.00" d=" M 35.56 77.49 C 38.92 77.36 42.32 77.95 45.65 77.21 C 45.42 79.03 45.22 80.87 45.24 82.71 C 51.15 83.41 57.11 82.68 63.04 82.94 C 69.61 82.81 76.20 83.35 82.74 82.72 C 82.70 80.85 82.44 79.01 82.18 77.16 C 85.33 77.83 88.54 77.38 91.71 77.65 C 92.98 78.20 93.61 79.68 94.64 80.59 C 94.96 80.18 95.61 79.36 95.94 78.95 C 96.25 81.62 96.76 84.30 96.35 87.00 C 92.04 87.71 86.43 85.31 83.15 88.99 C 83.10 88.28 82.99 86.84 82.94 86.13 C 82.17 87.32 81.48 88.56 80.62 89.69 C 69.10 90.82 57.46 89.30 45.91 90.15 C 45.82 93.02 47.73 95.36 49.10 97.71 C 44.25 97.53 39.37 97.59 34.58 98.50 C 31.41 92.08 30.83 84.61 32.10 77.62 C 32.55 78.73 33.01 79.83 33.52 80.91 C 34.21 79.78 34.82 78.60 35.56 77.49 Z" />
</g>
<g id="#f8ce6cff">
<path fill="#f8ce6c" opacity="1.00" d=" M 80.62 89.69 C 81.48 88.56 82.17 87.32 82.94 86.13 C 82.99 86.84 83.10 88.28 83.15 88.99 C 82.28 92.00 81.06 95.03 78.56 97.06 C 74.75 98.02 71.73 100.98 67.78 101.48 C 64.76 101.82 61.62 101.97 58.66 101.18 C 55.83 100.41 53.44 98.03 50.35 98.45 C 50.04 98.26 49.41 97.90 49.10 97.71 C 47.73 95.36 45.82 93.02 45.91 90.15 C 57.46 89.30 69.10 90.82 80.62 89.69 Z" />
</g>
<g id="#efc553ff">
<path fill="#efc553" opacity="1.00" d=" M 83.15 88.99 C 86.43 85.31 92.04 87.71 96.35 87.00 C 95.95 90.95 95.02 94.83 93.34 98.45 C 88.24 98.07 83.12 98.07 78.01 98.02 L 78.56 97.06 C 81.06 95.03 82.28 92.00 83.15 88.99 Z" />
</g>
<g id="#fad889ff">
<path fill="#fad889" opacity="1.00" d=" M 67.78 101.48 C 71.73 100.98 74.75 98.02 78.56 97.06 L 78.01 98.02 C 70.83 105.60 57.76 105.82 50.35 98.45 C 53.44 98.03 55.83 100.41 58.66 101.18 C 61.62 101.97 64.76 101.82 67.78 101.48 Z" />
</g>
<g id="#e9bf44ff">
<path fill="#e9bf44" opacity="1.00" d=" M 34.58 98.50 C 39.37 97.59 44.25 97.53 49.10 97.71 C 49.41 97.90 50.04 98.26 50.35 98.45 C 57.76 105.82 70.83 105.60 78.01 98.02 C 83.12 98.07 88.24 98.07 93.34 98.45 C 87.40 111.30 72.34 119.35 58.43 116.53 C 48.18 114.99 39.12 107.79 34.58 98.50 Z" />
</g>
</svg>
